<svg xmlns="http://www.w3.org/2000/svg" viewBox="0 0 200 200" fill="none">
  <!-- Spider-Man Modern Logo -->
  <defs>
    <linearGradient id="redGrad" x1="0%" y1="0%" x2="0%" y2="100%">
      <stop offset="0%" style="stop-color:#ff0000;stop-opacity:1" />
      <stop offset="100%" style="stop-color:#cc0000;stop-opacity:1" />
    </linearGradient>
  </defs>
  
  <!-- Central body (shield shape) -->
  <path d="M 100 50 
           L 110 75 L 115 90 L 115 110 L 110 125 L 100 140
           L 90 125 L 85 110 L 85 90 L 90 75 Z" 
        fill="url(#redGrad)"/>
  
  <!-- Head (top point) -->
  <ellipse cx="100" cy="55" rx="8" ry="12" fill="url(#redGrad)"/>
  
  <!-- Upper left legs (curved) -->
  <path d="M 90 70 
           Q 60 50 45 40
           Q 40 38 38 42
           Q 40 46 45 48
           Q 62 58 88 75
           Z" 
        fill="url(#redGrad)"/>
  
  <path d="M 88 85
           Q 55 70 35 60
           Q 30 58 28 62
           Q 30 67 35 68
           Q 57 78 86 90
           Z" 
        fill="url(#redGrad)"/>
  
  <!-- Upper right legs (curved) -->
  <path d="M 110 70
           Q 140 50 155 40
           Q 160 38 162 42
           Q 160 46 155 48
           Q 138 58 112 75
           Z" 
        fill="url(#redGrad)"/>
  
  <path d="M 112 85
           Q 145 70 165 60
           Q 170 58 172 62
           Q 170 67 165 68
           Q 143 78 114 90
           Z" 
        fill="url(#redGrad)"/>
  
  <!-- Lower left legs (curved downward) -->
  <path d="M 88 105
           Q 55 115 35 125
           Q 30 127 28 132
           Q 30 137 35 138
           Q 57 128 86 110
           Z" 
        fill="url(#redGrad)"/>
  
  <path d="M 90 120
           Q 60 140 45 155
           Q 40 158 38 163
           Q 40 167 45 168
           Q 62 153 88 130
           Z" 
        fill="url(#redGrad)"/>
  
  <!-- Lower right legs (curved downward) -->
  <path d="M 112 105
           Q 145 115 165 125
           Q 170 127 172 132
           Q 170 137 165 138
           Q 143 128 114 110
           Z" 
        fill="url(#redGrad)"/>
  
  <path d="M 110 120
           Q 140 140 155 155
           Q 160 158 162 163
           Q 160 167 155 168
           Q 138 153 112 130
           Z" 
        fill="url(#redGrad)"/>
</svg>