<svg xmlns="http://www.w3.org/2000/svg" viewBox="0 0 64 64" fill="none">
  <!-- Spider body -->
  <ellipse cx="32" cy="40" rx="12" ry="16" fill="#1e293b"/>
  <circle cx="32" cy="24" r="10" fill="#1e293b"/>
  
  <!-- Eyes -->
  <circle cx="28" cy="22" r="2.5" fill="#ef4444"/>
  <circle cx="36" cy="22" r="2.5" fill="#ef4444"/>
  
  <!-- Legs -->
  <path d="M 20 35 Q 8 30 4 25" stroke="#1e293b" stroke-width="2.5" stroke-linecap="round"/>
  <path d="M 20 38 Q 6 38 2 40" stroke="#1e293b" stroke-width="2.5" stroke-linecap="round"/>
  <path d="M 20 42 Q 8 48 4 54" stroke="#1e293b" stroke-width="2.5" stroke-linecap="round"/>
  <path d="M 20 45 Q 10 52 6 60" stroke="#1e293b" stroke-width="2.5" stroke-linecap="round"/>
  
  <path d="M 44 35 Q 56 30 60 25" stroke="#1e293b" stroke-width="2.5" stroke-linecap="round"/>
  <path d="M 44 38 Q 58 38 62 40" stroke="#1e293b" stroke-width="2.5" stroke-linecap="round"/>
  <path d="M 44 42 Q 56 48 60 54" stroke="#1e293b" stroke-width="2.5" stroke-linecap="round"/>
  <path d="M 44 45 Q 54 52 58 60" stroke="#1e293b" stroke-width="2.5" stroke-linecap="round"/>
  
  <!-- Web detail -->
  <circle cx="32" cy="32" r="28" stroke="#64748b" stroke-width="0.5" fill="none" opacity="0.3"/>
  <circle cx="32" cy="32" r="20" stroke="#64748b" stroke-width="0.5" fill="none" opacity="0.3"/>
</svg>